<?xml version="1.0" standalone="no"?>
<!DOCTYPE svg PUBLIC "-//W3C//DTD SVG 20010904//EN"
 "http://www.w3.org/TR/2001/REC-SVG-20010904/DTD/svg10.dtd">
<svg version="1.0" xmlns="http://www.w3.org/2000/svg"
 width="700.000000pt" height="700.000000pt" viewBox="0 0 700.000000 700.000000"
 preserveAspectRatio="xMidYMid meet">
<metadata>
Created by potrace 1.11, written by Peter Selinger 2001-2013
</metadata>
<g transform="translate(0.000000,700.000000) scale(0.100000,-0.100000)"
fill="#000000" stroke="none">
<path d="M4440 6366 c-3 -2 -23 -5 -45 -7 -22 -1 -46 -7 -52 -12 -7 -5 -13 -7
-13 -3 0 3 -15 0 -34 -8 -19 -8 -37 -12 -40 -8 -3 3 -6 1 -6 -5 0 -6 -11 -14
-25 -17 -60 -15 -235 -152 -235 -183 0 -7 -3 -13 -7 -13 -15 0 -82 -124 -83
-150 0 -9 -5 -21 -10 -26 -6 -6 -14 -21 -17 -35 -4 -13 -9 -394 -10 -846 l-4
-823 -234 0 -235 0 2 812 3 811 25 4 c141 20 199 183 105 291 -11 12 -25 22
-31 22 -7 0 -14 5 -16 11 -6 17 -127 23 -178 8 -25 -7 -53 -14 -63 -16 -34 -6
-146 -112 -172 -163 -28 -55 -31 -62 -35 -105 -7 -61 -6 -1694 1 -1742 7 -47
55 -153 70 -153 5 0 9 -5 9 -11 0 -21 124 -105 166 -112 10 -1 24 -6 30 -9 15
-10 624 -10 638 0 6 3 16 7 22 8 28 4 120 58 146 85 31 32 43 33 108 3 25 -12
63 -29 85 -39 22 -10 42 -21 45 -24 3 -3 21 -14 40 -24 20 -10 50 -31 67 -47
18 -17 35 -30 38 -30 6 0 57 -52 95 -97 14 -17 37 -51 50 -77 14 -25 28 -46
31 -46 3 0 6 -6 6 -12 1 -7 8 -35 16 -62 13 -39 16 -118 17 -439 1 -388 1
-392 24 -443 19 -41 32 -54 67 -71 44 -20 96 -35 134 -37 11 -1 25 -4 30 -8
13 -8 261 -3 297 6 15 3 40 11 55 17 16 6 39 13 53 16 13 2 27 8 30 12 3 5 16
12 29 16 28 9 76 40 130 87 39 34 131 161 131 183 0 5 7 23 15 38 8 15 17 45
21 65 4 20 9 46 11 57 18 72 23 236 20 569 -2 210 -5 388 -8 396 -28 86 -140
136 -238 106 -33 -10 -117 -83 -107 -93 3 -3 1 -16 -4 -29 -5 -13 -10 -210
-10 -438 -2 -430 -4 -456 -46 -537 -37 -74 -134 -129 -227 -129 l-35 0 -6 328
c-6 384 -5 360 -16 367 -5 3 -7 12 -3 20 3 8 1 15 -5 15 -5 0 -10 10 -10 23 0
12 -5 36 -12 52 -6 17 -11 31 -10 33 2 4 -84 166 -95 178 -5 6 -29 33 -51 60
-95 112 -216 213 -329 273 -22 12 -47 26 -55 31 -36 22 -145 70 -160 70 -9 0
-20 3 -24 8 -4 4 -24 12 -44 17 l-37 11 0 719 c0 396 3 731 6 745 22 96 92
168 194 197 37 11 1834 9 1894 -1 75 -14 191 -76 191 -103 0 -7 4 -13 8 -13
18 0 67 -144 56 -162 -3 -4 -2 -14 3 -20 4 -7 8 -17 8 -23 2 -30 21 -155 25
-165 1 -3 3 -9 5 -15 1 -5 3 -12 4 -15 2 -3 4 -14 5 -25 7 -54 19 -132 22
-150 3 -11 6 -36 9 -55 3 -19 8 -48 11 -65 4 -16 8 -41 10 -55 1 -14 3 -25 4
-25 1 0 3 -11 4 -25 2 -14 7 -45 11 -70 23 -127 40 -242 37 -253 -1 -4 2 -16
7 -25 9 -17 12 -34 27 -137 6 -47 8 -59 18 -102 6 -28 20 -126 20 -143 0 -37
-16 -110 -25 -110 -5 0 -9 -6 -9 -13 0 -8 -21 -33 -46 -57 -72 -68 -110 -75
-382 -75 -137 0 -232 -4 -232 -9 0 -5 -3 -6 -7 -3 -3 4 -17 0 -30 -8 -13 -9
-23 -13 -23 -10 0 2 -9 -3 -21 -13 -63 -53 -74 -180 -20 -245 9 -10 34 -28 56
-40 38 -21 53 -22 270 -22 254 0 324 4 343 18 6 5 12 7 12 4 0 -10 107 30 168
63 32 17 76 48 100 69 l42 39 0 743 c-1 409 -5 764 -10 789 -7 39 -12 72 -24
155 -2 11 -6 34 -9 50 -4 17 -9 48 -12 70 -8 64 -25 146 -33 160 -4 6 -8 19
-9 29 -2 11 -8 25 -13 31 -5 7 -7 15 -3 18 3 4 1 7 -5 7 -7 0 -12 6 -12 14 0
8 -6 21 -13 28 -8 7 -20 24 -27 38 -7 13 -18 30 -24 38 -21 26 -101 102 -108
102 -3 0 -19 10 -35 23 -32 26 -119 66 -168 77 -5 1 -17 6 -25 10 -8 4 -31 11
-50 14 -19 3 -46 9 -60 13 -27 8 -1913 17 -1920 9z"/>
<path d="M775 5478 c-71 -13 -82 -16 -136 -39 -56 -25 -79 -41 -140 -99 -37
-36 -88 -108 -93 -132 -2 -7 -8 -25 -14 -39 -5 -14 -13 -41 -17 -60 -4 -19 -8
-767 -9 -1664 l-1 -1630 -182 -3 -183 -2 0 -473 0 -473 50 -46 c28 -26 63 -56
79 -68 33 -23 144 -79 169 -86 10 -2 42 -11 72 -19 48 -13 417 -15 3130 -14
2984 0 3167 2 3190 28 3 3 12 7 20 9 15 3 115 51 155 75 19 11 71 56 117 99
17 17 18 47 18 493 l0 475 -180 0 -180 0 -3 563 c-2 309 -5 567 -7 574 -5 20
-63 77 -95 94 -16 9 -52 17 -80 17 -83 0 -153 -53 -174 -131 -16 -58 -11
-1344 5 -1355 6 -4 14 -17 18 -28 4 -12 26 -34 49 -50 l42 -28 200 -2 c110 -1
202 -2 206 -3 11 -2 2 -227 -11 -251 -7 -14 -13 -27 -12 -30 1 -3 -12 -26 -28
-52 -36 -55 -104 -107 -175 -134 -49 -18 -130 -19 -3065 -19 -1658 0 -3026 2
-3040 5 -41 9 -140 58 -140 69 0 6 -5 11 -10 11 -19 0 -59 53 -89 115 -27 57
-29 67 -28 175 l2 115 190 0 c185 1 255 8 255 25 0 5 9 11 19 15 18 5 49 58
56 94 2 9 4 16 5 16 2 0 3 774 4 1720 1 1640 2 1722 19 1748 10 16 30 33 45
39 19 8 268 12 822 13 873 2 822 -2 882 62 59 63 57 173 -5 229 -69 62 -9 58
-882 59 -440 0 -818 -3 -840 -7z"/>
<path d="M1026 1770 c-27 -22 -45 -40 -41 -40 4 0 2 -7 -5 -15 -18 -21 -20
-114 -3 -147 21 -42 59 -79 96 -92 24 -8 255 -11 830 -11 635 0 797 -3 797
-13 0 -18 125 -142 144 -142 9 0 16 -4 16 -8 0 -5 24 -16 52 -25 47 -15 115
-17 595 -17 374 0 551 4 570 11 109 44 176 95 219 167 l15 27 792 0 c436 -1
805 2 821 7 33 9 96 65 96 85 0 7 5 13 10 13 17 0 12 115 -7 151 -22 41 -31
50 -72 72 -30 16 -95 17 -945 17 l-912 0 -41 -26 c-41 -27 -78 -76 -66 -88 3
-3 1 -6 -5 -6 -7 0 -11 -3 -11 -7 1 -5 1 -24 0 -43 l-1 -35 -467 0 -467 0 -8
35 c-4 19 -10 45 -12 57 -2 12 -17 35 -32 52 -57 65 2 61 -999 61 l-911 0 -48
-40z"/>
</g>
</svg>
